<?xml version="1.0" standalone="no"?>
<!DOCTYPE svg PUBLIC "-//W3C//DTD SVG 1.1//EN" "http://www.w3.org/Graphics/SVG/1.1/DTD/svg11.dtd">
<svg xmlns="http://www.w3.org/2000/svg" xmlns:xlink="http://www.w3.org/1999/xlink" width="525" zoomAndPan="magnify" viewBox="0 0 525 89.999999" height="90" preserveAspectRatio="xMidYMid meet" version="1.2"><defs><g/><clipPath xml:id="clip1" id="clip1"><path d="M 9 64 L 21 64 L 21 75.679688 L 9 75.679688 Z M 9 64 "/></clipPath><clipPath xml:id="clip2" id="clip2"><path d="M 26 17.929688 L 119.25 17.929688 L 119.25 65 L 26 65 Z M 26 17.929688 "/></clipPath></defs><g xml:id="surface1" id="surface1"><path style="fill:none;stroke-width:1;stroke-linecap:round;stroke-linejoin:miter;stroke:rgb(100%,100%,100%);stroke-opacity:1;stroke-miterlimit:4;" d="M 0.500413 0.000179789 L 15.76533 0.000179789 " transform="matrix(0.000000000000000229,-3.735588,3.75,0.00000000000000023,146.358701,75.685743)"/><g clip-rule="nonzero" clip-path="url(#clip1)"><path style=" stroke:none;fill-rule:nonzero;fill:rgb(100%,100%,100%);fill-opacity:1;" d="M 11.878906 75.613281 C 12.578125 75.613281 13.191406 75.351562 13.714844 74.828125 L 19.824219 68.714844 C 20.871094 67.667969 20.871094 66.007812 19.824219 65.050781 C 18.777344 64 17.117188 64 16.15625 65.050781 L 10.046875 71.160156 C 9 72.207031 9 73.867188 10.046875 74.828125 C 10.570312 75.351562 11.183594 75.613281 11.878906 75.613281 Z M 11.878906 75.613281 "/></g><g clip-rule="nonzero" clip-path="url(#clip2)"><path style=" stroke:none;fill-rule:nonzero;fill:rgb(100%,100%,100%);fill-opacity:1;" d="M 116.632812 17.992188 L 94.808594 17.992188 C 93.324219 17.992188 92.1875 19.128906 92.1875 20.613281 C 92.1875 22.097656 93.324219 23.230469 94.808594 23.230469 L 110.347656 23.230469 L 74.207031 59.289062 C 73.507812 59.984375 72.460938 59.984375 71.761719 59.289062 L 51.773438 39.296875 C 49.066406 36.589844 44.613281 36.589844 41.910156 39.296875 L 27.507812 53.699219 C 26.457031 54.746094 26.457031 56.40625 27.507812 57.367188 C 28.554688 58.414062 30.210938 58.414062 31.171875 57.367188 L 45.574219 42.960938 C 46.273438 42.261719 47.320312 42.261719 48.019531 42.960938 L 68.007812 62.953125 C 69.40625 64.351562 71.152344 64.960938 72.984375 64.960938 C 74.816406 64.960938 76.5625 64.261719 77.960938 62.953125 L 114.011719 26.898438 L 114.011719 42.4375 C 114.011719 43.921875 115.148438 45.058594 116.632812 45.058594 C 118.113281 45.058594 119.25 43.921875 119.25 42.4375 L 119.25 20.613281 C 119.25 19.128906 118.113281 17.992188 116.632812 17.992188 Z M 116.632812 17.992188 "/></g><g style="fill:rgb(100%,100%,100%);fill-opacity:1;"><g transform="translate(173.198724, 74.184166)"><path style="stroke:none;" d="M 41.40625 -12.234375 L 14.96875 -12.234375 L 9.75 0 L -0.375 0 L 23.421875 -52.890625 L 33.09375 -52.890625 L 56.96875 0 L 46.703125 0 Z M 38.15625 -19.953125 L 28.1875 -43.078125 L 18.28125 -19.953125 Z M 38.15625 -19.953125 "/></g></g><g style="fill:rgb(100%,100%,100%);fill-opacity:1;"><g transform="translate(222.993275, 74.184166)"><path style="stroke:none;" d="M 23.5 0.75 C 19.414062 0.75 15.472656 0.171875 11.671875 -0.984375 C 7.867188 -2.140625 4.859375 -3.675781 2.640625 -5.59375 L 6.046875 -13.21875 C 8.210938 -11.507812 10.867188 -10.113281 14.015625 -9.03125 C 17.160156 -7.945312 20.320312 -7.40625 23.5 -7.40625 C 27.425781 -7.40625 30.359375 -8.035156 32.296875 -9.296875 C 34.242188 -10.554688 35.21875 -12.21875 35.21875 -14.28125 C 35.21875 -15.789062 34.675781 -17.035156 33.59375 -18.015625 C 32.507812 -19.003906 31.132812 -19.773438 29.46875 -20.328125 C 27.800781 -20.878906 25.535156 -21.507812 22.671875 -22.21875 C 18.640625 -23.175781 15.375 -24.128906 12.875 -25.078125 C 10.382812 -26.035156 8.242188 -27.535156 6.453125 -29.578125 C 4.671875 -31.617188 3.78125 -34.378906 3.78125 -37.859375 C 3.78125 -40.773438 4.570312 -43.429688 6.15625 -45.828125 C 7.738281 -48.222656 10.128906 -50.125 13.328125 -51.53125 C 16.535156 -52.945312 20.457031 -53.65625 25.09375 -53.65625 C 28.3125 -53.65625 31.484375 -53.25 34.609375 -52.4375 C 37.734375 -51.632812 40.425781 -50.476562 42.6875 -48.96875 L 39.59375 -41.328125 C 37.28125 -42.691406 34.863281 -43.722656 32.34375 -44.421875 C 29.820312 -45.128906 27.378906 -45.484375 25.015625 -45.484375 C 21.128906 -45.484375 18.242188 -44.828125 16.359375 -43.515625 C 14.472656 -42.210938 13.53125 -40.476562 13.53125 -38.3125 C 13.53125 -36.800781 14.070312 -35.566406 15.15625 -34.609375 C 16.238281 -33.648438 17.609375 -32.894531 19.265625 -32.34375 C 20.929688 -31.789062 23.195312 -31.160156 26.0625 -30.453125 C 30 -29.546875 33.222656 -28.597656 35.734375 -27.609375 C 38.253906 -26.628906 40.410156 -25.128906 42.203125 -23.109375 C 43.992188 -21.097656 44.890625 -18.382812 44.890625 -14.96875 C 44.890625 -12.039062 44.09375 -9.390625 42.5 -7.015625 C 40.914062 -4.648438 38.507812 -2.765625 35.28125 -1.359375 C 32.0625 0.046875 28.132812 0.75 23.5 0.75 Z M 23.5 0.75 "/></g></g><g style="fill:rgb(100%,100%,100%);fill-opacity:1;"><g transform="translate(263.720329, 74.184166)"><path style="stroke:none;" d="M 31.578125 0.75 C 26.242188 0.75 21.421875 -0.414062 17.109375 -2.75 C 12.804688 -5.09375 9.429688 -8.328125 6.984375 -12.453125 C 4.546875 -16.585938 3.328125 -21.253906 3.328125 -26.453125 C 3.328125 -31.640625 4.5625 -36.296875 7.03125 -40.421875 C 9.5 -44.554688 12.882812 -47.796875 17.1875 -50.140625 C 21.5 -52.484375 26.320312 -53.65625 31.65625 -53.65625 C 35.988281 -53.65625 39.941406 -52.894531 43.515625 -51.375 C 47.097656 -49.863281 50.125 -47.675781 52.59375 -44.8125 L 46.25 -38.84375 C 42.414062 -42.96875 37.703125 -45.03125 32.109375 -45.03125 C 28.484375 -45.03125 25.234375 -44.238281 22.359375 -42.65625 C 19.492188 -41.070312 17.253906 -38.867188 15.640625 -36.046875 C 14.023438 -33.222656 13.21875 -30.023438 13.21875 -26.453125 C 13.21875 -22.867188 14.023438 -19.664062 15.640625 -16.84375 C 17.253906 -14.03125 19.492188 -11.828125 22.359375 -10.234375 C 25.234375 -8.648438 28.484375 -7.859375 32.109375 -7.859375 C 37.703125 -7.859375 42.414062 -9.945312 46.25 -14.125 L 52.59375 -8.078125 C 50.125 -5.210938 47.085938 -3.023438 43.484375 -1.515625 C 39.878906 -0.00390625 35.910156 0.75 31.578125 0.75 Z M 31.578125 0.75 "/></g></g><g style="fill:rgb(100%,100%,100%);fill-opacity:1;"><g transform="translate(311.852494, 74.184166)"><path style="stroke:none;" d="M 46.765625 -8.234375 L 46.765625 0 L 7.109375 0 L 7.109375 -52.890625 L 45.71875 -52.890625 L 45.71875 -44.65625 L 16.921875 -44.65625 L 16.921875 -30.90625 L 42.46875 -30.90625 L 42.46875 -22.8125 L 16.921875 -22.8125 L 16.921875 -8.234375 Z M 46.765625 -8.234375 "/></g></g><g style="fill:rgb(100%,100%,100%);fill-opacity:1;"><g transform="translate(355.677619, 74.184166)"><path style="stroke:none;" d="M 54.109375 -52.890625 L 54.109375 0 L 46.015625 0 L 16.84375 -35.8125 L 16.84375 0 L 7.109375 0 L 7.109375 -52.890625 L 15.1875 -52.890625 L 44.359375 -17.078125 L 44.359375 -52.890625 Z M 54.109375 -52.890625 "/></g></g><g style="fill:rgb(100%,100%,100%);fill-opacity:1;"><g transform="translate(410.081478, 74.184166)"><path style="stroke:none;" d="M 7.109375 -52.890625 L 30.21875 -52.890625 C 35.863281 -52.890625 40.875 -51.789062 45.25 -49.59375 C 49.632812 -47.40625 53.035156 -44.3125 55.453125 -40.3125 C 57.878906 -36.3125 59.09375 -31.691406 59.09375 -26.453125 C 59.09375 -21.210938 57.878906 -16.585938 55.453125 -12.578125 C 53.035156 -8.578125 49.632812 -5.476562 45.25 -3.28125 C 40.875 -1.09375 35.863281 0 30.21875 0 L 7.109375 0 Z M 29.765625 -8.3125 C 33.648438 -8.3125 37.066406 -9.050781 40.015625 -10.53125 C 42.960938 -12.019531 45.226562 -14.132812 46.8125 -16.875 C 48.394531 -19.625 49.1875 -22.816406 49.1875 -26.453125 C 49.1875 -30.078125 48.394531 -33.257812 46.8125 -36 C 45.226562 -38.75 42.960938 -40.863281 40.015625 -42.34375 C 37.066406 -43.832031 33.648438 -44.578125 29.765625 -44.578125 L 16.921875 -44.578125 L 16.921875 -8.3125 Z M 29.765625 -8.3125 "/></g></g><g style="fill:rgb(100%,100%,100%);fill-opacity:1;"><g transform="translate(465.694337, 74.184166)"><path style="stroke:none;" d="M 23.5 0.75 C 19.414062 0.75 15.472656 0.171875 11.671875 -0.984375 C 7.867188 -2.140625 4.859375 -3.675781 2.640625 -5.59375 L 6.046875 -13.21875 C 8.210938 -11.507812 10.867188 -10.113281 14.015625 -9.03125 C 17.160156 -7.945312 20.320312 -7.40625 23.5 -7.40625 C 27.425781 -7.40625 30.359375 -8.035156 32.296875 -9.296875 C 34.242188 -10.554688 35.21875 -12.21875 35.21875 -14.28125 C 35.21875 -15.789062 34.675781 -17.035156 33.59375 -18.015625 C 32.507812 -19.003906 31.132812 -19.773438 29.46875 -20.328125 C 27.800781 -20.878906 25.535156 -21.507812 22.671875 -22.21875 C 18.640625 -23.175781 15.375 -24.128906 12.875 -25.078125 C 10.382812 -26.035156 8.242188 -27.535156 6.453125 -29.578125 C 4.671875 -31.617188 3.78125 -34.378906 3.78125 -37.859375 C 3.78125 -40.773438 4.570312 -43.429688 6.15625 -45.828125 C 7.738281 -48.222656 10.128906 -50.125 13.328125 -51.53125 C 16.535156 -52.945312 20.457031 -53.65625 25.09375 -53.65625 C 28.3125 -53.65625 31.484375 -53.25 34.609375 -52.4375 C 37.734375 -51.632812 40.425781 -50.476562 42.6875 -48.96875 L 39.59375 -41.328125 C 37.28125 -42.691406 34.863281 -43.722656 32.34375 -44.421875 C 29.820312 -45.128906 27.378906 -45.484375 25.015625 -45.484375 C 21.128906 -45.484375 18.242188 -44.828125 16.359375 -43.515625 C 14.472656 -42.210938 13.53125 -40.476562 13.53125 -38.3125 C 13.53125 -36.800781 14.070312 -35.566406 15.15625 -34.609375 C 16.238281 -33.648438 17.609375 -32.894531 19.265625 -32.34375 C 20.929688 -31.789062 23.195312 -31.160156 26.0625 -30.453125 C 30 -29.546875 33.222656 -28.597656 35.734375 -27.609375 C 38.253906 -26.628906 40.410156 -25.128906 42.203125 -23.109375 C 43.992188 -21.097656 44.890625 -18.382812 44.890625 -14.96875 C 44.890625 -12.039062 44.09375 -9.390625 42.5 -7.015625 C 40.914062 -4.648438 38.507812 -2.765625 35.28125 -1.359375 C 32.0625 0.046875 28.132812 0.75 23.5 0.75 Z M 23.5 0.75 "/></g></g></g></svg>